<svg xmlns="http://www.w3.org/2000/svg" viewBox="0 0 1200 800" font-family="'Inter', system-ui, -apple-system, sans-serif">
  <defs>
    <filter id="cardShadow" x="-20%" y="-20%" width="140%" height="140%">
      <feDropShadow dx="0" dy="6" stdDeviation="10" flood-color="#14171C" flood-opacity="0.18"/>
    </filter>
    <marker id="arrowCord" viewBox="0 0 10 10" refX="8" refY="5" markerWidth="7" markerHeight="7" orient="auto-start-reverse">
      <path d="M0,0 L10,5 L0,10 z" fill="#C8302C"/>
    </marker>
  </defs>

  <rect width="1200" height="800" fill="#FAF7EF"/>

  <g>
    <circle cx="80" cy="80" r="4" fill="#E8B657" opacity="0.55"/>
    <circle cx="1120" cy="80" r="4" fill="#E8B657" opacity="0.55"/>
    <circle cx="80" cy="720" r="4" fill="#E8B657" opacity="0.55"/>
    <circle cx="1120" cy="720" r="4" fill="#E8B657" opacity="0.55"/>
    <circle cx="140" cy="140" r="3" fill="#C8302C" opacity="0.5"/>
    <circle cx="1060" cy="660" r="3" fill="#C8302C" opacity="0.5"/>
  </g>

  <text x="600" y="64" text-anchor="middle" font-size="18" font-weight="700" fill="#23282F">One writer for every agent's OAuth credentials.</text>
  <text x="600" y="770" text-anchor="middle" font-size="11" font-weight="500" font-style="italic" fill="#5A6069">Replaces host-side fanout — the EACCES / last-write-wins bug class is gone by construction.</text>

  <!-- auth-broker (focal, brass, -1.2) -->
  <g transform="rotate(-1.2 300 360)">
    <rect x="150" y="250" width="300" height="220" rx="14" fill="#FFFFFF" stroke="#E8B657" stroke-width="2" filter="url(#cardShadow)"/>
    <rect x="150" y="250" width="6" height="220" rx="3" fill="#E8B657"/>
    <text x="174" y="288" font-size="18" font-weight="700" fill="#23282F">auth-broker</text>
    <text x="174" y="288" font-size="10" font-weight="700" fill="#B8873A" dx="120">RFC H</text>
    <text x="174" y="316" font-size="12" font-weight="500" fill="#5A6069">root singleton</text>
    <text x="174" y="336" font-size="12" font-weight="500" fill="#5A6069">owns the OAuth refresh loop</text>
    <text x="174" y="356" font-size="12" font-weight="500" fill="#5A6069">holds fleet-wide auth.active</text>
    <line x1="174" y1="376" x2="426" y2="376" stroke="#EDE7D7" stroke-width="1"/>
    <text x="174" y="400" font-size="11" font-weight="700" fill="#8A8F98" letter-spacing="0.5">UDS LISTENERS</text>
    <text x="174" y="422" font-size="11.5" font-weight="500" fill="#23282F">agent · 0660 → allocateAgentUid(name)</text>
    <text x="174" y="442" font-size="11.5" font-weight="500" fill="#23282F">operator · 0600 → --operator-uid</text>
    <text x="174" y="462" font-size="11.5" font-weight="500" fill="#23282F">consumer · 0600 → consumers[].uid</text>
  </g>

  <!-- refresh loop feeding the broker -->
  <g transform="rotate(0.8 300 150)">
    <rect x="180" y="110" width="240" height="80" rx="14" fill="#FFFFFF" stroke="#EDE7D7" stroke-width="1.5" filter="url(#cardShadow)"/>
    <text x="200" y="142" font-size="14" font-weight="700" fill="#23282F">OAuth refresh loop</text>
    <text x="200" y="166" font-size="11.5" font-weight="500" fill="#5A6069">Anthropic + Google providers</text>
  </g>
  <path d="M300,192 C300,210 300,222 300,248" fill="none" stroke="#C8302C" stroke-width="2.5" stroke-linecap="round" marker-end="url(#arrowCord)"/>
  <text x="314" y="226" font-size="10.5" font-weight="500" fill="#C8302C">token refresh</text>

  <!-- operator verb -->
  <g transform="rotate(-0.6 300 560)">
    <rect x="170" y="520" width="260" height="76" rx="14" fill="#FFFFFF" stroke="#EDE7D7" stroke-width="1.5" filter="url(#cardShadow)"/>
    <text x="190" y="550" font-size="13" font-weight="700" fill="#23282F">switchroom auth use &lt;label&gt;</text>
    <text x="190" y="572" font-size="11" font-weight="500" fill="#5A6069">operator socket — one verb, whole fleet</text>
  </g>
  <path d="M300,520 C300,505 300,490 300,474" fill="none" stroke="#C8302C" stroke-width="2.5" stroke-linecap="round" marker-end="url(#arrowCord)"/>
  <text x="314" y="502" font-size="10.5" font-weight="500" fill="#C8302C">flips fleet auth.active</text>

  <!-- agents ×N (dark, focal -1.2) -->
  <g transform="rotate(-1.2 800 360)">
    <rect x="676" y="276" width="280" height="200" rx="14" fill="#14171C" opacity="0.35"/>
    <rect x="668" y="268" width="280" height="200" rx="14" fill="#14171C" opacity="0.6"/>
    <rect x="660" y="260" width="280" height="200" rx="14" fill="#14171C" stroke="#23282F" stroke-width="1.5" filter="url(#cardShadow)"/>
    <text x="684" y="296" font-size="16" font-weight="700" fill="#FAF7EF">agent-&lt;name&gt;  ✕ N</text>
    <text x="684" y="322" font-size="11.5" font-weight="500" fill="#8A8F98">at boot each reads ONLY its own</text>
    <g font-family="'JetBrains Mono', ui-monospace, monospace" font-size="12" fill="#E8B657">
      <text x="684" y="352">&lt;agentDir&gt;/.claude/</text>
      <text x="700" y="374">.credentials.json</text>
    </g>
    <text x="684" y="410" font-size="11" font-weight="500" font-style="italic" fill="#8A8F98">one account per agent — never the</text>
    <text x="684" y="428" font-size="11" font-weight="500" font-style="italic" fill="#8A8F98">whole pool, never another agent's.</text>
  </g>

  <!-- broker → agents : sole writer -->
  <path d="M450,360 C530,360 560,360 656,360" fill="none" stroke="#C8302C" stroke-width="2.5" stroke-linecap="round" marker-end="url(#arrowCord)"/>
  <text x="476" y="346" font-size="10.5" font-weight="500" fill="#C8302C">sole writer · chowned to agent UID</text>

  <!-- OLD/NEW contrast inset -->
  <rect x="660" y="540" width="468" height="150" rx="12" fill="#F5F1E8" stroke="#EDE7D7" stroke-width="1.5"/>
  <text x="684" y="566" font-size="11" font-weight="700" fill="#8A8F98" letter-spacing="0.5">WHY THE BUG CLASS IS GONE</text>

  <circle cx="696" cy="600" r="6" fill="#C8302C"/>
  <text x="714" y="598" font-size="12" font-weight="700" fill="#C8302C">OLD</text>
  <text x="714" y="616" font-size="11" font-weight="500" fill="#5A6069">host user fans out N copies → last-</text>
  <text x="714" y="632" font-size="11" font-weight="500" fill="#5A6069">write-wins + EACCES into per-UID dirs</text>

  <circle cx="696" cy="662" r="6" fill="#4A9B8E"/>
  <text x="714" y="660" font-size="12" font-weight="700" fill="#4A9B8E">NEW</text>
  <text x="714" y="678" font-size="11" font-weight="500" fill="#5A6069">broker writes one file per agent, keyed by that agent's active selection</text>

  <!-- path-as-identity leader -->
  <line x1="300" y1="470" x2="300" y2="500" stroke="#8A8F98" stroke-width="1.4" stroke-dasharray="2 4"/>
  <text x="110" y="710" font-size="11" font-weight="500" fill="#5A6069">Path-as-identity (socketPathToName): the agent is the bind path, not a wire claim.</text>
</svg>
