<svg xmlns="http://www.w3.org/2000/svg" viewBox="0 0 800 520" width="800" height="520" font-family="Caveat, 'Bradley Hand', 'Segoe Print', cursive">
  <defs>
    <style>
      @import url('https://fonts.googleapis.com/css2?family=Caveat:wght@500;700&amp;display=swap');
      .ink { fill: none; stroke: #14171C; stroke-width: 2; stroke-linecap: round; stroke-linejoin: round; }
      .ink-thin { fill: none; stroke: #14171C; stroke-width: 1.4; stroke-linecap: round; stroke-linejoin: round; }
      .brass { fill: none; stroke: #B8873A; stroke-width: 2.2; stroke-linecap: round; stroke-linejoin: round; }
      .label { font-size: 22px; fill: #14171C; }
      .label-sm { font-size: 18px; fill: #14171C; }
      .arrow { fill: #B8873A; }
      .body { font-family: 'Menlo', 'Consolas', monospace; font-size: 14px; fill: #14171C; }
      .pin-fill { fill: #E8B657; }
      .pulse { fill: #C8302C; }
    </style>
    <marker id="arrowhead" viewBox="0 0 10 10" refX="9" refY="5" markerWidth="8" markerHeight="8" orient="auto">
      <path d="M0,0 L10,5 L0,10 z" class="arrow"/>
    </marker>
  </defs>

  <rect width="800" height="520" fill="#FAF7EF"/>

  <!-- Phone frame (the card) -->
  <g transform="translate(230,40) rotate(-0.6)">
    <rect x="0" y="0" width="340" height="380" rx="18" ry="18" fill="#F5F1E8" class="ink"/>
    <!-- pin badge -->
    <g transform="translate(20,22)">
      <circle cx="10" cy="10" r="11" class="pin-fill"/>
      <circle cx="10" cy="10" r="11" class="ink"/>
      <path d="M5,7 L15,7 L13,13 L7,13 z M10,13 L10,18" class="ink-thin"/>
    </g>
    <text x="50" y="36" class="body" style="font-weight:700;">📌 Pinned · ⚙️ Working… · ⏱ 12s</text>

    <!-- pulse dot -->
    <circle cx="316" cy="30" r="6" class="pulse"/>
    <circle cx="316" cy="30" r="11" fill="none" stroke="#C8302C" stroke-width="1.4" opacity="0.5"/>

    <!-- user quote line -->
    <line x1="20" y1="58" x2="320" y2="58" class="ink-thin"/>
    <text x="20" y="80" class="body">💬 refactor the auth module to use JWT</text>
    <line x1="20" y1="96" x2="320" y2="96" class="ink-thin"/>

    <!-- collapsed older -->
    <text x="20" y="124" class="body" fill="#5A6069">… (+3 more earlier steps)</text>

    <!-- step list -->
    <text x="20" y="156" class="body">✅ Read src/auth/session.ts</text>
    <text x="20" y="180" class="body">✅ Grep "cookie" (in src/)</text>
    <text x="20" y="204" class="body">✅ Read src/auth/jwt.ts</text>
    <text x="20" y="228" class="body">✅ Bash bun test auth/</text>
    <text x="20" y="252" class="body" style="font-weight:700;">🤖 Edit src/auth/jwt.ts · 4s</text>

    <!-- sub-agent indent -->
    <line x1="40" y1="276" x2="40" y2="338" class="brass"/>
    <text x="56" y="284" class="body" fill="#B8873A">└─ @worker (sub-agent)</text>
    <text x="56" y="306" class="body">   ✅ Read tests/auth.test.ts</text>
    <text x="56" y="328" class="body">   🤖 Write tests/jwt.test.ts</text>

    <!-- footer timer -->
    <line x1="20" y1="350" x2="320" y2="350" class="ink-thin"/>
    <text x="20" y="370" class="body" fill="#5A6069">elapsed 12s · 5 of 8 steps · last update 1s ago</text>
  </g>

  <!-- Annotations: arrows + labels -->
  <!-- pin badge -->
  <text x="40" y="56" class="label">pin badge</text>
  <path d="M120,60 Q180,68 248,72" class="brass" marker-end="url(#arrowhead)"/>

  <!-- user quote -->
  <text x="40" y="96" class="label">user's prompt</text>
  <path d="M150,98 Q200,92 250,86" class="brass" marker-end="url(#arrowhead)"/>

  <!-- pulse -->
  <text x="610" y="62" class="label">in-flight pulse</text>
  <path d="M608,58 Q580,46 558,42" class="brass" marker-end="url(#arrowhead)"/>

  <!-- elapsed timer (top) -->
  <text x="610" y="106" class="label">elapsed timer</text>
  <path d="M608,102 Q540,86 478,72" class="brass" marker-end="url(#arrowhead)"/>

  <!-- collapsed older -->
  <text x="40" y="166" class="label">older steps,</text>
  <text x="40" y="186" class="label">collapsed</text>
  <path d="M150,168 Q200,162 250,162" class="brass" marker-end="url(#arrowhead)"/>

  <!-- last 5 visible -->
  <text x="610" y="210" class="label">last 5 steps,</text>
  <text x="610" y="230" class="label">always visible</text>
  <path d="M608,222 Q580,212 558,208" class="brass" marker-end="url(#arrowhead)"/>

  <!-- in-flight tool -->
  <text x="610" y="288" class="label">running step,</text>
  <text x="610" y="308" class="label">w/ duration</text>
  <path d="M608,294 Q570,286 538,290" class="brass" marker-end="url(#arrowhead)"/>

  <!-- sub-agent -->
  <text x="40" y="338" class="label">sub-agent,</text>
  <text x="40" y="358" class="label">indented inline</text>
  <path d="M150,340 Q200,332 256,326" class="brass" marker-end="url(#arrowhead)"/>

  <!-- footer caption -->
  <text x="400" y="468" text-anchor="middle" class="label" style="font-size:24px; font-weight:700;">one pinned card per task. updates in place. nothing buried.</text>
  <line x1="160" y1="478" x2="640" y2="482" class="brass"/>
</svg>
