<svg xmlns="http://www.w3.org/2000/svg" viewBox="0 0 1000 360" width="1000" height="360" font-family="Caveat, 'Bradley Hand', 'Segoe Print', cursive">
  <defs>
    <style>
      @import url('https://fonts.googleapis.com/css2?family=Caveat:wght@500;700&amp;display=swap');
      .ink { fill: none; stroke: #14171C; stroke-width: 2; stroke-linecap: round; stroke-linejoin: round; }
      .ink-thin { fill: none; stroke: #14171C; stroke-width: 1.4; stroke-linecap: round; stroke-linejoin: round; }
      .brass { fill: none; stroke: #B8873A; stroke-width: 2.4; stroke-linecap: round; stroke-linejoin: round; }
      .cord { fill: none; stroke: #C8302C; stroke-width: 2.4; stroke-linecap: round; stroke-linejoin: round; }
      .label { font-size: 20px; fill: #14171C; }
      .label-sm { font-size: 16px; fill: #14171C; }
      .body { font-family: 'Menlo', 'Consolas', monospace; font-size: 12px; fill: #14171C; }
      .panel { fill: #F5F1E8; }
    </style>
    <marker id="arrowhead-b" viewBox="0 0 10 10" refX="9" refY="5" markerWidth="9" markerHeight="9" orient="auto">
      <path d="M0,0 L10,5 L0,10 z" fill="#B8873A"/>
    </marker>
  </defs>

  <rect width="1000" height="360" fill="#FAF7EF"/>

  <!-- Title -->
  <text x="500" y="38" text-anchor="middle" class="label" style="font-size:26px; font-weight:700;">when an agent dies mid-turn — the wake-audit lifecycle</text>
  <line x1="240" y1="48" x2="760" y2="50" class="cord"/>

  <!-- Timeline baseline -->
  <line x1="60" y1="220" x2="940" y2="220" class="brass"/>

  <!-- Step 1: kill (skull) -->
  <g transform="translate(80,140) rotate(-1.2)">
    <rect x="0" y="0" width="130" height="100" rx="10" class="panel ink"/>
    <!-- skull -->
    <g transform="translate(45,18)">
      <circle cx="20" cy="20" r="18" class="ink"/>
      <circle cx="13" cy="18" r="3" fill="#14171C"/>
      <circle cx="27" cy="18" r="3" fill="#14171C"/>
      <path d="M14,30 L18,34 L22,30 L26,34" class="ink-thin"/>
      <rect x="10" y="38" width="20" height="6" class="ink"/>
    </g>
    <text x="65" y="92" text-anchor="middle" class="body">SIGKILL / panic</text>
  </g>
  <text x="145" y="262" text-anchor="middle" class="label">1. process dies</text>

  <!-- Step 2: crash-pane snapshot -->
  <g transform="translate(250,140) rotate(0.8)">
    <rect x="0" y="0" width="150" height="100" rx="6" class="panel ink"/>
    <text x="75" y="24" text-anchor="middle" class="label-sm" style="font-weight:700;">crash-pane.txt</text>
    <line x1="14" y1="32" x2="136" y2="32" class="ink-thin"/>
    <text x="14" y="48" class="body">$ bun run build</text>
    <text x="14" y="62" class="body">error TS2304:</text>
    <text x="14" y="76" class="body">  cannot find name…</text>
    <text x="14" y="90" class="body" fill="#C8302C">[killed by watchdog]</text>
  </g>
  <text x="325" y="262" text-anchor="middle" class="label">2. tmux pane captured</text>

  <!-- Step 3: systemd restart -->
  <g transform="translate(440,140) rotate(-0.5)">
    <rect x="0" y="0" width="130" height="100" rx="10" class="panel ink"/>
    <text x="65" y="38" text-anchor="middle" class="label" style="font-weight:700;">systemd</text>
    <text x="65" y="62" text-anchor="middle" class="label-sm">Restart=always</text>
    <!-- arrow loop -->
    <path d="M40,76 Q65,90 90,76" class="cord" marker-end="url(#arrowhead-b)"/>
  </g>
  <text x="505" y="262" text-anchor="middle" class="label">3. systemd respawns</text>

  <!-- Step 4: start.sh sets env -->
  <g transform="translate(620,140) rotate(0.6)">
    <rect x="0" y="0" width="170" height="100" rx="6" class="panel ink"/>
    <text x="85" y="24" text-anchor="middle" class="label-sm" style="font-weight:700;">start.sh</text>
    <line x1="14" y1="32" x2="156" y2="32" class="ink-thin"/>
    <text x="14" y="50" class="body">SWITCHROOM_PENDING_</text>
    <text x="14" y="64" class="body">  TURN=true</text>
    <text x="14" y="78" class="body">PENDING_CHAT_ID=…</text>
    <text x="14" y="92" class="body">PENDING_USER_MSG=…</text>
  </g>
  <text x="705" y="262" text-anchor="middle" class="label">4. env sentinel set</text>

  <!-- Step 5: agent ack -->
  <g transform="translate(820,130) rotate(-0.8)">
    <rect x="0" y="0" width="150" height="120" rx="14" class="panel ink"/>
    <text x="75" y="22" text-anchor="middle" class="body" style="font-weight:700;">⚠ killed mid-turn</text>
    <line x1="14" y1="30" x2="136" y2="30" class="ink-thin"/>
    <text x="14" y="50" class="body">want me to:</text>
    <text x="14" y="68" class="body">(a) start over</text>
    <text x="14" y="84" class="body">(b) summarise &amp;</text>
    <text x="14" y="98" class="body">    continue</text>
    <text x="14" y="114" class="body">(c) drop it</text>
  </g>
  <text x="895" y="278" text-anchor="middle" class="label">5. ack &amp; ask user</text>

  <!-- baseline arrows between steps -->
  <path d="M210,220 L250,220" class="brass" marker-end="url(#arrowhead-b)"/>
  <path d="M400,220 L440,220" class="brass" marker-end="url(#arrowhead-b)"/>
  <path d="M570,220 L620,220" class="brass" marker-end="url(#arrowhead-b)"/>
  <path d="M790,220 L820,220" class="brass" marker-end="url(#arrowhead-b)"/>

  <!-- footer caption -->
  <text x="500" y="330" text-anchor="middle" class="label" style="font-weight:700;">no silent dropped work. the agent tells you it forgot, and asks how to recover.</text>
</svg>
