<svg xmlns="http://www.w3.org/2000/svg" viewBox="0 0 1200 800" font-family="'Inter', system-ui, -apple-system, sans-serif">
  <defs>
    <filter id="cardShadow" x="-20%" y="-20%" width="140%" height="140%">
      <feDropShadow dx="0" dy="6" stdDeviation="10" flood-color="#14171C" flood-opacity="0.18"/>
    </filter>
    <marker id="arrowCord" viewBox="0 0 10 10" refX="8" refY="5" markerWidth="7" markerHeight="7" orient="auto-start-reverse">
      <path d="M0,0 L10,5 L0,10 z" fill="#C8302C"/>
    </marker>
  </defs>

  <rect width="1200" height="800" fill="#FAF7EF"/>

  <g>
    <circle cx="80" cy="80" r="4" fill="#E8B657" opacity="0.55"/>
    <circle cx="1120" cy="80" r="4" fill="#E8B657" opacity="0.55"/>
    <circle cx="80" cy="720" r="4" fill="#E8B657" opacity="0.55"/>
    <circle cx="1120" cy="720" r="4" fill="#E8B657" opacity="0.55"/>
    <circle cx="140" cy="140" r="3" fill="#C8302C" opacity="0.5"/>
    <circle cx="1060" cy="660" r="3" fill="#C8302C" opacity="0.5"/>
  </g>

  <text x="600" y="64" text-anchor="middle" font-size="18" font-weight="700" fill="#23282F">Things die. Switchroom comes back, with receipts.</text>
  <text x="600" y="748" text-anchor="middle" font-size="11" font-weight="500" font-style="italic" fill="#5A6069">Guardrail against silent dropped work — fires less than once a week on a healthy system.</text>

  <!-- 1 Crash or kill (cord) -->
  <g transform="rotate(-1.2 160 280)">
    <rect x="80" y="220" width="160" height="120" rx="14" fill="#FFFFFF" stroke="#EDE7D7" stroke-width="1.5" filter="url(#cardShadow)"/>
    <rect x="80" y="220" width="6" height="120" rx="3" fill="#C8302C"/>
    <text x="100" y="252" font-size="15" font-weight="700" fill="#23282F">Crash or kill</text>
    <text x="100" y="278" font-size="11" font-weight="500" fill="#5A6069">watchdog · SIGTERM</text>
    <text x="100" y="296" font-size="11" font-weight="500" fill="#5A6069">timeout · OOM</text>
  </g>
  <circle cx="92" cy="216" r="16" fill="#C8302C"/>
  <text x="92" y="221" text-anchor="middle" font-size="13" font-weight="700" fill="#FAF7EF">1</text>

  <!-- 2 Fresh boot (brass) -->
  <g transform="rotate(0.8 360 280)">
    <rect x="280" y="220" width="170" height="120" rx="14" fill="#FFFFFF" stroke="#EDE7D7" stroke-width="1.5" filter="url(#cardShadow)"/>
    <rect x="280" y="220" width="6" height="120" rx="3" fill="#E8B657"/>
    <text x="300" y="252" font-size="15" font-weight="700" fill="#23282F">Fresh boot</text>
    <text x="300" y="278" font-size="11" font-weight="500" fill="#5A6069">start.sh — default</text>
    <text x="300" y="296" font-size="11" font-weight="500" fill="#5A6069">handoff mode, no</text>
    <text x="300" y="314" font-size="11" font-weight="500" fill="#5A6069">--continue</text>
  </g>
  <circle cx="292" cy="216" r="16" fill="#E8B657"/>
  <text x="292" y="221" text-anchor="middle" font-size="13" font-weight="700" fill="#FAF7EF">2</text>

  <!-- 3 Boot inputs: 3a/3b/3c stack -->
  <circle cx="500" cy="120" r="16" fill="#E8B657"/>
  <text x="500" y="125" text-anchor="middle" font-size="13" font-weight="700" fill="#FAF7EF">3</text>
  <text x="524" y="125" font-size="12" font-weight="700" fill="#8A8F98" letter-spacing="0.5">BOOT INPUTS — three independent signals</text>

  <g transform="rotate(0.8 610 190)">
    <rect x="500" y="150" width="240" height="84" rx="14" fill="#FFFFFF" stroke="#EDE7D7" stroke-width="1.5" filter="url(#cardShadow)"/>
    <text x="518" y="176" font-size="12.5" font-weight="700" fill="#23282F">3a · SWITCHROOM_PENDING_TURN</text>
    <text x="518" y="196" font-size="10.5" font-weight="500" fill="#5A6069">turn in flight at kill (restart/</text>
    <text x="518" y="212" font-size="10.5" font-weight="500" fill="#5A6069">sigterm/timeout) · consumed once</text>
  </g>
  <g transform="rotate(-0.6 610 300)">
    <rect x="500" y="260" width="240" height="84" rx="14" fill="#FFFFFF" stroke="#EDE7D7" stroke-width="1.5" filter="url(#cardShadow)"/>
    <text x="518" y="286" font-size="12.5" font-weight="700" fill="#23282F">3b · .wake-audit-pending</text>
    <text x="518" y="306" font-size="10.5" font-weight="500" fill="#5A6069">written EVERY boot · durable</text>
    <text x="518" y="322" font-size="10.5" font-weight="500" fill="#5A6069">file · survives N deferred turns</text>
  </g>
  <g transform="rotate(0.8 610 410)">
    <rect x="500" y="370" width="240" height="84" rx="14" fill="#FFFFFF" stroke="#EDE7D7" stroke-width="1.5" filter="url(#cardShadow)"/>
    <text x="518" y="396" font-size="12.5" font-weight="700" fill="#23282F">3c · handoff briefing</text>
    <text x="518" y="416" font-size="10.5" font-weight="500" fill="#5A6069">.handoff.md (Stop-hook LLM) +/or</text>
    <text x="518" y="432" font-size="10.5" font-weight="500" fill="#5A6069">.handoff-briefing.md (live)</text>
  </g>

  <!-- 4 Wake audit (brass, focal) -->
  <g transform="rotate(-1.2 870 300)">
    <rect x="790" y="218" width="160" height="168" rx="14" fill="#FFFFFF" stroke="#E8B657" stroke-width="2" filter="url(#cardShadow)"/>
    <rect x="790" y="218" width="6" height="168" rx="3" fill="#E8B657"/>
    <text x="810" y="250" font-size="15" font-weight="700" fill="#23282F">Wake audit</text>
    <text x="810" y="274" font-size="11" font-weight="700" fill="#8A8F98" letter-spacing="0.3">3-SIGNAL CHECK</text>
    <text x="810" y="298" font-size="11" font-weight="500" fill="#5A6069">owed reply?</text>
    <text x="810" y="318" font-size="11" font-weight="500" fill="#5A6069">orphan sub-agent?</text>
    <text x="810" y="338" font-size="11" font-weight="500" fill="#5A6069">open todo?</text>
    <text x="810" y="366" font-size="10" font-weight="500" font-style="italic" fill="#8A8F98">dedup via .wake-audit-last-completed</text>
  </g>
  <circle cx="802" cy="214" r="16" fill="#E8B657"/>
  <text x="802" y="219" text-anchor="middle" font-size="13" font-weight="700" fill="#FAF7EF">4</text>

  <!-- 5a All clean (teal) -->
  <g transform="rotate(0.8 1040 200)">
    <rect x="975" y="158" width="150" height="92" rx="14" fill="#FFFFFF" stroke="#EDE7D7" stroke-width="1.5" filter="url(#cardShadow)"/>
    <rect x="975" y="158" width="6" height="92" rx="3" fill="#4A9B8E"/>
    <text x="993" y="188" font-size="14" font-weight="700" fill="#23282F">All clean</text>
    <text x="993" y="210" font-size="10.5" font-weight="500" fill="#5A6069">no owed replies,</text>
    <text x="993" y="226" font-size="10.5" font-weight="500" fill="#5A6069">no orphans → silent</text>
  </g>
  <circle cx="987" cy="154" r="16" fill="#4A9B8E"/>
  <text x="987" y="159" text-anchor="middle" font-size="12" font-weight="700" fill="#FAF7EF">5a</text>

  <!-- 5b Found work (cord) -->
  <g transform="rotate(-0.6 1040 430)">
    <rect x="975" y="388" width="150" height="92" rx="14" fill="#FFFFFF" stroke="#EDE7D7" stroke-width="1.5" filter="url(#cardShadow)"/>
    <rect x="975" y="388" width="6" height="92" rx="3" fill="#C8302C"/>
    <text x="993" y="418" font-size="14" font-weight="700" fill="#23282F">Found work</text>
    <text x="993" y="440" font-size="10.5" font-weight="500" fill="#5A6069">owed reply / orphan</text>
    <text x="993" y="456" font-size="10.5" font-weight="500" fill="#5A6069">→ surface and ask</text>
  </g>
  <circle cx="987" cy="384" r="16" fill="#C8302C"/>
  <text x="987" y="389" text-anchor="middle" font-size="12" font-weight="700" fill="#FAF7EF">5b</text>

  <!-- 6 First turn acknowledges (brass) -->
  <g transform="rotate(0.8 600 630)">
    <rect x="430" y="588" width="340" height="96" rx="14" fill="#FFFFFF" stroke="#EDE7D7" stroke-width="1.5" filter="url(#cardShadow)"/>
    <rect x="430" y="588" width="6" height="96" rx="3" fill="#E8B657"/>
    <text x="452" y="618" font-size="15" font-weight="700" fill="#23282F">First turn acknowledges</text>
    <text x="452" y="644" font-size="11" font-weight="500" fill="#5A6069">(a) start over   (b) summarize &amp; continue</text>
    <text x="452" y="664" font-size="11" font-weight="500" fill="#5A6069">(c) drop</text>
  </g>
  <circle cx="442" cy="584" r="16" fill="#E8B657"/>
  <text x="442" y="589" text-anchor="middle" font-size="13" font-weight="700" fill="#FAF7EF">6</text>

  <!-- primary-flow spine: 1 → 2 → 4 (boot proceeds to the audit;
       the 3a/3b/3c inputs FEED the audit via dotted leaders) -->
  <path d="M240,280 C258,280 264,280 278,280" fill="none" stroke="#C8302C" stroke-width="2.5" stroke-linecap="round" marker-end="url(#arrowCord)"/>
  <path d="M432,338 C432,505 540,542 662,542 C744,542 792,470 800,392" fill="none" stroke="#C8302C" stroke-width="2.5" stroke-linecap="round" marker-end="url(#arrowCord)"/>
  <text x="470" y="566" font-size="10.5" font-weight="500" fill="#C8302C">boot proceeds → wake audit</text>

  <!-- 3a/3b/3c feed 4 (dotted leaders) -->
  <line x1="740" y1="192" x2="788" y2="270" stroke="#8A8F98" stroke-width="1.4" stroke-dasharray="2 4"/>
  <line x1="740" y1="300" x2="788" y2="300" stroke="#8A8F98" stroke-width="1.4" stroke-dasharray="2 4"/>
  <line x1="740" y1="410" x2="788" y2="338" stroke="#8A8F98" stroke-width="1.4" stroke-dasharray="2 4"/>
  <text x="744" y="245" font-size="10" font-weight="500" font-style="italic" fill="#8A8F98">feeds</text>

  <!-- 4 → 5a / 5b -->
  <path d="M950,270 C962,250 966,220 973,205" fill="none" stroke="#C8302C" stroke-width="2.5" stroke-linecap="round" marker-end="url(#arrowCord)"/>
  <path d="M950,340 C962,370 966,405 973,425" fill="none" stroke="#C8302C" stroke-width="2.5" stroke-linecap="round" marker-end="url(#arrowCord)"/>

  <!-- 5a → 6 / 5b → 6 -->
  <path d="M1040,250 C1040,520 860,560 772,612" fill="none" stroke="#C8302C" stroke-width="2.5" stroke-linecap="round" marker-end="url(#arrowCord)"/>
  <path d="M1040,480 C1040,560 900,600 772,636" fill="none" stroke="#C8302C" stroke-width="2.5" stroke-linecap="round" marker-end="url(#arrowCord)"/>

  <!-- note: 3b complements 3a -->
  <text x="80" y="430" font-size="11" font-weight="500" font-style="italic" fill="#8A8F98">3b complements 3a — the sentinel also</text>
  <text x="80" y="448" font-size="11" font-weight="500" font-style="italic" fill="#8A8F98">catches long silent restarts, watchdog-</text>
  <text x="80" y="466" font-size="11" font-weight="500" font-style="italic" fill="#8A8F98">killed sub-agents, and messages that</text>
  <text x="80" y="484" font-size="11" font-weight="500" font-style="italic" fill="#8A8F98">landed while the gateway was down.</text>
</svg>
